<?xml version="1.0" encoding="UTF-8" standalone="no"?>
<svg
   xmlns:dc="http://purl.org/dc/elements/1.1/"
   xmlns:cc="http://creativecommons.org/ns#"
   xmlns:rdf="http://www.w3.org/1999/02/22-rdf-syntax-ns#"
   xmlns:svg="http://www.w3.org/2000/svg"
   xmlns="http://www.w3.org/2000/svg"
   xmlns:sodipodi="http://sodipodi.sourceforge.net/DTD/sodipodi-0.dtd"
   xmlns:inkscape="http://www.inkscape.org/namespaces/inkscape"
   width="52.600693mm"
   height="52.600689mm"
   viewBox="0 0 52.600693 52.600689"
   version="1.1"
   id="svg79"
   inkscape:version="1.0.2 (e86c870879, 2021-01-15)"
   sodipodi:docname="plus.svg">
  <defs
     id="defs73" />
  <sodipodi:namedview
     id="base"
     pagecolor="#ffffff"
     bordercolor="#666666"
     borderopacity="1.0"
     inkscape:pageopacity="0.0"
     inkscape:pageshadow="2"
     inkscape:zoom="0.35"
     inkscape:cx="495.11717"
     inkscape:cy="385.11718"
     inkscape:document-units="mm"
     inkscape:current-layer="layer1"
     inkscape:document-rotation="0"
     showgrid="false"
     inkscape:window-width="1343"
     inkscape:window-height="908"
     inkscape:window-x="577"
     inkscape:window-y="0"
     inkscape:window-maximized="0" />
  <metadata
     id="metadata76">
    <rdf:RDF>
      <cc:Work
         rdf:about="">
        <dc:format>image/svg+xml</dc:format>
        <dc:type
           rdf:resource="http://purl.org/dc/dcmitype/StillImage" />
        <dc:title></dc:title>
      </cc:Work>
    </rdf:RDF>
  </metadata>
  <g
     inkscape:label="Layer 1"
     inkscape:groupmode="layer"
     id="layer1"
     transform="translate(54.270584,-46.271081)">
    <path
       id="rect65"
       style="fill:#000000;stroke:#000000;stroke-width:0.499999"
       d="m -27.96998,46.52108 c -3.988483,0 -7.199559,3.21108 -7.199559,7.19956 v 11.65148 h -11.651484 c -3.988483,0 -7.199562,3.21057 -7.199562,7.19905 0,3.98848 3.211079,7.19956 7.199562,7.19956 h 11.651484 v 11.65148 c 0,3.98849 3.211076,7.19956 7.199559,7.19956 3.988482,0 7.199045,-3.21107 7.199045,-7.19956 V 79.77073 H -9.11945 c 3.988483,0 7.199559,-3.21108 7.199559,-7.19956 2e-6,-3.98848 -3.211076,-7.19905 -7.199559,-7.19905 H -20.770935 V 53.72064 c 0,-3.98848 -3.210563,-7.19956 -7.199045,-7.19956 z"
       inkscape:export-filename="/home/villerot/Images/NoSleep/+.png"
       inkscape:export-xdpi="300"
       inkscape:export-ydpi="300" />
  </g>
</svg>
